<svg width="213" height="213" viewBox="0 0 213 213" fill="none" xmlns="http://www.w3.org/2000/svg">
<path d="M159 177C163.708 177 168.222 178.87 171.551 182.199C174.88 185.528 176.75 190.042 176.75 194.75C176.75 199.458 174.88 203.972 171.551 207.301C168.222 210.63 163.708 212.5 159 212.5C154.292 212.5 149.778 210.63 146.449 207.301C143.12 203.972 141.25 199.458 141.25 194.75C141.25 184.899 149.149 177 159 177ZM17 35H46.0212L54.3638 52.75H185.625C187.979 52.75 190.236 53.685 191.901 55.3494C193.565 57.0138 194.5 59.2712 194.5 61.625C194.5 63.1338 194.056 64.6425 193.435 66.0625L161.662 123.484C158.645 128.898 152.788 132.625 146.131 132.625H80.0125L72.025 147.091L71.7588 148.156C71.7588 148.745 71.9925 149.309 72.4086 149.725C72.8247 150.141 73.3891 150.375 73.9775 150.375H176.75V168.125H70.25C65.5424 168.125 61.0276 166.255 57.6989 162.926C54.3701 159.597 52.5 155.083 52.5 150.375C52.5 147.269 53.2987 144.34 54.63 141.855L66.7 120.111L34.75 52.75H17V35ZM70.25 177C74.9576 177 79.4724 178.87 82.8011 182.199C86.1299 185.528 88 190.042 88 194.75C88 199.458 86.1299 203.972 82.8011 207.301C79.4724 210.63 74.9576 212.5 70.25 212.5C65.5424 212.5 61.0276 210.63 57.6989 207.301C54.3701 203.972 52.5 199.458 52.5 194.75C52.5 184.899 60.3987 177 70.25 177ZM150.125 114.875L174.798 70.5H62.6175L83.5625 114.875H150.125Z" fill="black"/>
</svg>
