<svg width="8" height="8" viewBox="0 0 8 8" fill="none" xmlns="http://www.w3.org/2000/svg">
<path d="M4.75101 1.06214C4.66948 0.942414 4.62509 0.78406 4.6272 0.620438C4.62931 0.456816 4.67775 0.300701 4.76232 0.184985C4.84689 0.0692689 4.96098 0.00298532 5.08055 9.83978e-05C5.20013 -0.00278852 5.31585 0.0579466 5.40335 0.169509L7.86502 3.53793C7.95145 3.65635 8 3.81688 8 3.98425C8 4.15162 7.95145 4.31214 7.86502 4.43056L5.40335 7.79898C5.3611 7.86104 5.31014 7.91081 5.25352 7.94533C5.1969 7.97984 5.13578 7.99841 5.07381 7.9999C5.01184 8.0014 4.95028 7.9858 4.8928 7.95403C4.83533 7.92227 4.78312 7.87499 4.73929 7.81502C4.69547 7.75504 4.66091 7.6836 4.6377 7.60496C4.61448 7.52632 4.60308 7.44208 4.60418 7.35728C4.60527 7.27248 4.61884 7.18885 4.64406 7.11137C4.66929 7.0339 4.70566 6.96417 4.75101 6.90635L6.42494 4.61583H0.461562C0.339148 4.61583 0.221748 4.54928 0.135188 4.43084C0.0486286 4.3124 0 4.15175 0 3.98425C0 3.81674 0.0486286 3.6561 0.135188 3.53765C0.221748 3.41921 0.339148 3.35267 0.461562 3.35267H6.42494L4.75101 1.06214Z" fill="#CCCCCC"/>
</svg>
