<?xml version="1.0" encoding="UTF-8"?>
<svg xmlns="http://www.w3.org/2000/svg" xmlns:xlink="http://www.w3.org/1999/xlink" width="15px" height="17px" viewBox="0 0 15 17" version="1.1">
<g id="surface1">
<path style=" stroke:none;fill-rule:nonzero;fill:rgb(0%,0%,0%);fill-opacity:1;" d="M 3.359375 14.449219 L 0.246094 14.449219 L 0.246094 5.179688 L 3.359375 5.179688 Z M 1.804688 3.917969 C 0.808594 3.917969 0 3.152344 0 2.234375 C 0 1.316406 0.808594 0.566406 1.804688 0.566406 C 2.792969 0.566406 3.601562 1.316406 3.601562 2.234375 C 3.601562 3.152344 2.792969 3.917969 1.804688 3.917969 Z M 14.996094 14.449219 L 11.894531 14.449219 L 11.894531 9.9375 C 11.894531 8.863281 11.871094 7.480469 10.277344 7.480469 C 8.660156 7.480469 8.410156 8.652344 8.410156 9.859375 L 8.410156 14.449219 L 5.304688 14.449219 L 5.304688 5.179688 L 8.289062 5.179688 L 8.289062 6.445312 L 8.332031 6.445312 C 8.75 5.714844 9.761719 4.949219 11.273438 4.949219 C 14.421875 4.949219 15 6.867188 15 9.359375 L 15 14.449219 Z M 14.996094 14.449219 "/>
</g>
</svg>
