<svg width="34" height="35" viewBox="0 0 276 276" fill="none" xmlns="http://www.w3.org/2000/svg">
<path fill-rule="evenodd" clip-rule="evenodd" d="M66.6259 66.6257C60.2178 73.0338 55.1346 80.6413 51.6666 89.0139C48.1985 97.3864 46.4136 106.36 46.4136 115.423C46.4136 124.485 48.1985 133.459 51.6666 141.831C55.1346 150.204 60.2178 157.811 66.6259 164.219C73.034 170.627 80.6415 175.711 89.014 179.179C97.3866 182.647 106.36 184.432 115.423 184.432C124.485 184.432 133.459 182.647 141.831 179.179C150.204 175.711 157.811 170.627 164.219 164.219C176.788 151.206 183.743 133.776 183.586 115.685C183.429 97.593 176.172 80.287 163.379 67.4938C150.586 54.7007 133.28 47.444 115.188 47.2868C97.0966 47.1296 79.667 54.0844 66.6535 66.6533L66.6259 66.6257ZM154.449 154.449C149.344 159.668 143.255 163.823 136.533 166.673C129.811 169.523 122.591 171.011 115.29 171.052C107.989 171.092 100.753 169.683 94 166.908C87.2472 164.132 81.1122 160.044 75.9501 154.881C70.788 149.718 66.7014 143.582 63.9269 136.829C61.1525 130.076 59.7452 122.839 59.7867 115.539C59.8282 108.238 61.3176 101.018 64.1687 94.2965C67.0197 87.5752 71.1758 81.4863 76.3963 76.3823C86.7879 66.2225 100.767 60.5706 115.3 60.6533C129.832 60.7359 143.746 66.5463 154.022 76.8235C164.297 87.1008 170.105 101.016 170.185 115.548C170.265 130.081 164.611 144.059 154.449 154.449Z" fill="white"/>
<path d="M154.451 174.253C151.863 171.663 150.41 168.152 150.412 164.491C150.413 160.83 151.868 157.32 154.458 154.733C157.047 152.145 160.559 150.692 164.219 150.693C167.88 150.695 171.39 152.15 173.978 154.739L213.004 193.78C214.322 195.053 215.374 196.575 216.097 198.259C216.82 199.943 217.201 201.754 217.217 203.586C217.233 205.418 216.884 207.235 216.19 208.931C215.496 210.627 214.471 212.168 213.175 213.464C211.88 214.76 210.339 215.784 208.643 216.478C206.947 217.172 205.13 217.521 203.297 217.505C201.465 217.489 199.654 217.109 197.971 216.385C196.287 215.662 194.764 214.611 193.491 213.293L154.451 174.253Z" fill="white"/>
</svg>
